# xmcd CD database file
#
# Track frame offsets:
#	187
#	27082
#	45657
#	63747
#	92924
#	120519
#	146327
#	165899
#
# Disc length: 2478 seconds
#
# Revision: 0
# Processed by: cddbd v1.5.2PL0 Copyright (c) Steve Scherf et al.
# Submitted via: CDex 1.51
#
DISCID=6009ac08
DTITLE=Blue Mitchell - Blue's Moods (XRCD)
DYEAR=1998
DGENRE=Jazz
TTITLE0=I'll Close My Eyes
TTITLE1=Avars
TTITLE2=Scrapple from the Apple
TTITLE3=Kinda Vague
TTITLE4=Sir John
TTITLE5=When I Fall in Love
TTITLE6=Sweet Pumpkin
TTITLE7=I Wish I Knew
EXTD=YEAR: 1998
EXTT0=
EXTT1=
EXTT2=
EXTT3=
EXTT4=
EXTT5=
EXTT6=
EXTT7=
PLAYORDER=
